<svg width="34" height="22" viewBox="0 0 34 22" fill="none" xmlns="http://www.w3.org/2000/svg">
<path d="M6.01001 21L18.1544 1.71189V1.71189C18.758 0.922812 19.8869 0.772429 20.676 1.376C20.8023 1.47262 20.9153 1.58557 21.0119 1.71189L33.1563 21H6.01001Z" stroke="white" stroke-width="1.5" stroke-linecap="round" stroke-linejoin="round"/>
<path d="M6.01003 21H1.0094L6.01003 13.1419V13.1419C6.35957 12.7071 6.88124 12.4463 7.43878 12.4275V12.4275C7.99632 12.4463 8.51799 12.7071 8.86753 13.1419L9.79622 14.9992" stroke="white" stroke-width="1.5" stroke-linecap="round" stroke-linejoin="round"/>
<path d="M12.3751 10.8903L15.7227 13.722V13.722C16.2902 14.2017 17.1306 14.1663 17.6558 13.6406L18.573 12.7233V12.7233C19.131 12.1656 20.0354 12.1656 20.5933 12.7233L21.5106 13.6406V13.6406C22.0357 14.1663 22.8762 14.2017 23.4437 13.722L26.7298 10.946" stroke="white" stroke-width="1.5" stroke-linecap="round" stroke-linejoin="round"/>
</svg>
