<svg width="40" height="40" viewBox="0 0 40 40" fill="none" xmlns="http://www.w3.org/2000/svg">
<circle cx="20" cy="20" r="20" fill="#3852F7"/>
<path d="M11.4358 25L20.1104 11.2228V11.2228C20.5415 10.6591 21.3479 10.5517 21.9115 10.9828C22.0017 11.0518 22.0824 11.1325 22.1514 11.2228L30.826 25H11.4358Z" stroke="white" stroke-width="1.5" stroke-linecap="round" stroke-linejoin="round"/>
<path d="M11.4358 25H7.86389L11.4358 19.387V19.387C11.6854 19.0765 12.0581 18.8902 12.4563 18.8768V18.8768C12.8546 18.8902 13.2272 19.0765 13.4768 19.387L14.1402 20.7137" stroke="white" stroke-width="1.5" stroke-linecap="round" stroke-linejoin="round"/>
<path d="M15.9823 17.7787L18.3734 19.8015V19.8015C18.7788 20.1441 19.3791 20.1188 19.7542 19.7433L20.4094 19.0881V19.0881C20.8079 18.6897 21.4539 18.6897 21.8524 19.0881L22.5076 19.7433V19.7433C22.8827 20.1188 23.483 20.1441 23.8884 19.8015L26.2356 17.8185" stroke="white" stroke-width="1.5" stroke-linecap="round" stroke-linejoin="round"/>
</svg>
