<svg width="160" height="28" viewBox="0 0 160 28" fill="none" xmlns="http://www.w3.org/2000/svg">
<path fill-rule="evenodd" clip-rule="evenodd" d="M8.05607 17.2007H12.5048L10.3187 8.41822L8.05607 17.2007ZM0.0171574 27.6434L7.67881 0H13.0784L20.7969 27.7056H15.2906L13.7918 21.972H6.76868L5.30932 27.7056H0L0.0171574 27.6434ZM28.6682 5.00711H27.2581V22.8163H28.6682C30.5584 22.8163 32.0431 22.1228 33.0808 20.7546C34.2027 19.2752 34.7717 17.0389 34.7717 14.1081V13.7154C34.7717 10.7843 34.2027 8.54822 33.0808 7.06886C32.0431 5.70064 30.5584 5.00711 28.6682 5.00711ZM21.8743 0.117813H28.7471C35.9894 0.117813 40.3133 5.15693 40.3133 13.5974V14.2259C40.3133 22.6665 35.9894 27.7056 28.7471 27.7056H21.8743V0.117813ZM49.1817 5.04618H47.2589V13.627H49.3C52.0259 13.627 53.5891 12.0559 53.5891 9.31695C53.5891 6.48312 52.1063 5.04618 49.1817 5.04618ZM58.973 9.04206V9.27769C58.973 12.7891 57.519 15.4704 54.7671 17.0346L59.6313 27.7056H53.6459L49.5045 18.3983H47.2589V27.7056H41.875V0.117813H49.7339C52.6628 0.117813 55.0617 0.964703 56.671 2.56698C58.1771 4.06636 58.973 6.30562 58.973 9.04206ZM74.4103 16.3171H66.3643V22.7378H75.6332V27.7056H61.0201V0.117813H75.4752V5.08546H66.3643V11.3493H74.4103V16.3171ZM90.4473 14.9677L82.6778 0.117813H77.7077V27.7056H82.9732V12.2276L91.0445 27.6791L91.0583 27.7056H95.7128V0.117813H90.4473V14.9677ZM104.862 17.2007H109.311L107.125 8.41822L104.862 17.2007ZM96.8231 27.6434L104.485 0H109.884L117.603 27.7056H112.096L110.598 21.972H103.575L102.115 27.7056H96.806L96.8231 27.6434ZM118.68 0.117813H124.064V22.6985H131.952V27.7056H118.68V0.117813ZM133.483 27.7056H138.827V0.117813H133.483V27.7056ZM154.335 14.9677V0.117813H159.601V27.7056H154.946L154.933 27.6791L146.861 12.2276V27.7056H141.596V0.117813H146.566L146.58 0.144125L154.335 14.9677Z" fill="white"/>
</svg>
